HIERARCHY
ROOT Hips
{
	OFFSET 0.00 0.00 0.00
	CHANNELS 6 Xposition Yposition Zposition Xrotation Yrotation Zrotation
	JOINT Spine
	{
		OFFSET 0.00000 1.70439 2.55658
		CHANNELS 3 Xrotation Yrotation Zrotation
		JOINT Spine1
		{
			OFFSET 0.00000 0.59193 3.35699
			CHANNELS 3 Xrotation Yrotation Zrotation
			JOINT Spine2
			{
				OFFSET 0.00000 0.29710 3.39581
				CHANNELS 3 Xrotation Yrotation Zrotation
				JOINT Spine3
				{
					OFFSET 0.00000 0.00000 3.40878
					CHANNELS 3 Xrotation Yrotation Zrotation
					JOINT Neck
					{
						OFFSET 0.00000 -1.27828 8.94804
						CHANNELS 3 Xrotation Yrotation Zrotation
						JOINT Head
						{
							OFFSET 0.00000 -0.81390 4.61586
							CHANNELS 3 Xrotation Yrotation Zrotation
							End Site
							{
								OFFSET 0.00000 0.00001 5.51796
							}
						}
					}
					JOINT RightShoulder
					{
						OFFSET -1.18875 -1.98124 6.41925
						CHANNELS 3 Xrotation Yrotation Zrotation
						JOINT RightArm
						{
							OFFSET -5.90412 0.00000 0.00000
							CHANNELS 3 Xrotation Yrotation Zrotation
							JOINT RightForeArm
							{
								OFFSET -11.94674 0.00000 0.00000
								CHANNELS 3 Xrotation Yrotation Zrotation
								JOINT RightHand
								{
									OFFSET -10.17720 0.00000 0.00000
									CHANNELS 3 Xrotation Yrotation Zrotation
									JOINT RightHandEnd
									{
										OFFSET -2.84518 0.00000 0.00000
										CHANNELS 3 Xrotation Yrotation Zrotation
										End Site
										{
											OFFSET -2.84518 0.00000 0.00000
										}
									}
									JOINT RightHandThumb1
									{
										OFFSET -1.13807 -1.89679 -0.75871
										CHANNELS 3 Yrotation Xrotation Zrotation
										End Site
										{
											OFFSET -2.74823 -0.73639 0.00000
										}
									}
								}
							}
						}
					}
					JOINT LeftShoulder
					{
						OFFSET 1.18875 -1.98124 6.41925
						CHANNELS 3 Xrotation Yrotation Zrotation
						JOINT LeftArm
						{
							OFFSET 5.90412 0.00000 0.00000
							CHANNELS 3 Xrotation Yrotation Zrotation
							JOINT LeftForeArm
							{
								OFFSET 11.94674 0.00000 0.00000
								CHANNELS 3 Xrotation Yrotation Zrotation
								JOINT LeftHand
								{
									OFFSET 10.17720 0.00000 0.00000
									CHANNELS 3 Xrotation Yrotation Zrotation
									JOINT LeftHandEnd
									{
										OFFSET 2.84518 0.00000 0.00000
										CHANNELS 3 Xrotation Yrotation Zrotation
										End Site
										{
											OFFSET 2.84518 0.00000 0.00000
										}
									}
									JOINT LeftHandThumb1
									{
										OFFSET 1.13807 -1.89679 -0.75871
										CHANNELS 3 Yrotation Xrotation Zrotation
										End Site
										{
											OFFSET 2.74823 -0.73639 0.00000
										}
									}
								}
							}
						}
					}
				}
			}
		}
	}
	JOINT RightUpLeg
	{
		OFFSET -3.52662 0.00000 -1.03025
		CHANNELS 3 Xrotation Yrotation Zrotation
		JOINT RightLeg
		{
			OFFSET 0.00001 0.00000 -17.80159
			CHANNELS 3 Xrotation Yrotation Zrotation
			JOINT RightFoot
			{
				OFFSET 0.00001 0.00000 -16.85992
				CHANNELS 3 Xrotation Yrotation Zrotation
				JOINT RightToeBase
				{
					OFFSET 0.00000 -5.42953 -1.97619
					CHANNELS 3 Xrotation Yrotation Zrotation
					End Site
					{
						OFFSET 0.00000 -2.85300 -0.00000
					}
				}
			}
		}
	}
	JOINT LeftUpLeg
	{
		OFFSET 3.52662 0.00000 -1.03025
		CHANNELS 3 Xrotation Yrotation Zrotation
		JOINT LeftLeg
		{
			OFFSET 0.00001 0.00000 -17.80159
			CHANNELS 3 Xrotation Yrotation Zrotation
			JOINT LeftFoot
			{
				OFFSET 0.00001 0.00000 -16.85992
				CHANNELS 3 Xrotation Yrotation Zrotation
				JOINT LeftToeBase
				{
					OFFSET 0.00000 -5.42953 -1.97619
					CHANNELS 3 Xrotation Yrotation Zrotation
					End Site
					{
						OFFSET 0.00000 -2.85300 -0.00000
					}
				}
			}
		}
	}
}
MOTION
Frames: 17
Frame Time: 0.008342
 -1.1572 -6.9545 38.1615 3.1717 3.1585 -178.4397 1.2906 1.6800 -0.5685 0.8574 -0.0629 -0.1009 -0.5944 -1.7461 -0.5345 -0.6467 0.0752 0.3510 0.5022 0.1102 -1.1049 -3.1176 2.4085 0.1204 0.8036 11.3035 1.2368 -1.6131 3.8496 -2.0276 0.0000 0.0000 10.1131 -3.1986 17.1078 -5.7565 -0.0000 -0.0000 -0.0000 -0.0000 -0.0000 0.0000 -8.7701 -7.5984 -4.7762 6.2798 1.4285 2.8193 -0.0000 -0.0000 -14.8845 -5.4309 -15.4281 1.7542 -0.0000 -0.0000 0.0000 -0.0000 -0.0000 -0.0000 0.6887 8.4499 -37.8550 15.4400 0.0000 0.0000 -13.7163 -2.0746 -0.0520 4.0576 0.0000 0.0000 2.3169 -1.7780 14.3738 10.4944 0.0000 0.0000 -6.5414 8.5077 5.7593 -2.3259 0.0000 -0.0000
 -1.1672 -6.9395 38.1642 3.1670 3.1171 -178.4751 1.2702 1.6652 -0.5635 0.8532 -0.0683 -0.1005 -0.6006 -1.7446 -0.5225 -0.6514 0.0751 0.3549 0.4807 0.1124 -1.1129 -3.1136 2.4253 0.1246 0.7237 11.3759 1.2382 -1.5630 3.8894 -2.0436 0.0000 0.0000 10.0663 -3.0805 17.1688 -5.8547 -0.0000 -0.0000 0.0000 -0.0000 -0.0000 0.0000 -8.8596 -7.6688 -4.8118 6.2981 1.4090 2.8328 -0.0000 -0.0000 -14.7613 -5.4013 -15.3368 1.8672 -0.0000 -0.0000 0.0000 0.0000 0.0000 0.0000 0.7708 8.3994 -37.9833 15.2920 0.0000 0.0000 -13.6324 -2.1534 0.0995 4.0519 0.0000 0.0000 2.3553 -1.7974 14.4112 10.4647 0.0000 0.0000 -6.5582 8.4874 5.7670 -2.3294 0.0000 -0.0000
 -1.1796 -6.9200 38.1675 3.1696 3.0624 -178.5175 1.2541 1.6462 -0.5576 0.8492 -0.0727 -0.1001 -0.6111 -1.7461 -0.5091 -0.6575 0.0737 0.3594 0.4537 0.1146 -1.1232 -3.1098 2.4451 0.1293 0.6190 11.4634 1.2389 -1.5063 3.9445 -2.0638 0.0000 0.0000 10.0125 -2.9374 17.2408 -5.9669 -0.0000 0.0000 -0.0000 0.0000 -0.0000 0.0000 -8.9721 -7.7570 -4.8552 6.3127 1.3856 2.8507 -0.0000 -0.0000 -14.6133 -5.3643 -15.2203 2.0133 -0.0000 -0.0000 0.0000 0.0000 -0.0000 0.0000 0.8877 8.3307 -38.1538 15.0982 0.0000 0.0000 -13.5232 -2.2561 0.2965 4.0448 0.0000 0.0000 2.4131 -1.8244 14.4594 10.4268 0.0000 0.0000 -6.5814 8.4588 5.7767 -2.3310 0.0000 -0.0000
 -1.1942 -6.8965 38.1714 3.1727 2.9978 -178.5657 1.2361 1.6258 -0.5506 0.8451 -0.0754 -0.0991 -0.6246 -1.7504 -0.4963 -0.6648 0.0709 0.3652 0.4208 0.1153 -1.1357 -3.1080 2.4681 0.1348 0.4924 11.5612 1.2360 -1.4493 4.0167 -2.0862 0.0000 0.0000 9.9544 -2.7745 17.3227 -6.0855 -0.0000 0.0000 -0.0000 -0.0000 -0.0000 0.0000 -9.1058 -7.8595 -4.9026 6.3225 1.3571 2.8686 -0.0000 -0.0000 -14.4435 -5.3245 -15.0821 2.1844 0.0000 -0.0000 -0.0000 0.0000 0.0000 0.0000 1.0287 8.2487 -38.3632 14.8651 0.0000 0.0000 -13.3920 -2.3799 0.5356 4.0373 0.0000 0.0000 2.4813 -1.8550 14.5132 10.3824 0.0000 0.0000 -6.6110 8.4209 5.7938 -2.3298 0.0000 -0.0000
 -1.2105 -6.8695 38.1756 3.1812 2.9249 -178.6165 1.2231 1.6045 -0.5428 0.8401 -0.0766 -0.0979 -0.6413 -1.7567 -0.4850 -0.6733 0.0667 0.3720 0.3835 0.1132 -1.1514 -3.1078 2.4926 0.1405 0.3459 11.6654 1.2286 -1.3927 4.1037 -2.1098 0.0000 0.0000 9.8956 -2.5949 17.4141 -6.2064 0.0000 -0.0000 -0.0000 -0.0000 -0.0000 0.0000 -9.2567 -7.9736 -4.9531 6.3273 1.3240 2.8857 -0.0000 -0.0000 -14.2591 -5.2836 -14.9260 2.3776 0.0000 -0.0000 -0.0000 0.0000 0.0000 0.0000 1.1967 8.1537 -38.6091 14.5965 0.0000 0.0000 -13.2412 -2.5219 0.8114 4.0289 0.0000 0.0000 2.5634 -1.8891 14.5714 10.3321 0.0000 0.0000 -6.6464 8.3740 5.8162 -2.3252 0.0000 -0.0000
 -1.2280 -6.8404 38.1799 3.1828 2.8475 -178.6673 1.2030 1.5863 -0.5342 0.8349 -0.0770 -0.0968 -0.6594 -1.7650 -0.4759 -0.6832 0.0613 0.3787 0.3428 0.1069 -1.1696 -3.1114 2.5189 0.1474 0.1829 11.7676 1.2166 -1.3382 4.2078 -2.1332 0.0000 0.0000 9.8395 -2.4060 17.5116 -6.3242 -0.0000 0.0000 -0.0000 0.0000 -0.0000 0.0000 -9.4206 -8.0929 -5.0037 6.3274 1.2854 2.9008 -0.0000 -0.0000 -14.0679 -5.2418 -14.7604 2.5857 -0.0000 0.0000 -0.0000 -0.0000 0.0000 0.0000 1.3708 8.0515 -38.8798 14.3059 0.0000 0.0000 -13.0772 -2.6755 1.1110 4.0207 0.0000 0.0000 2.6421 -1.9236 14.6291 10.2805 0.0000 0.0000 -6.6873 8.3180 5.8461 -2.3167 0.0000 -0.0000
 -1.2459 -6.8097 38.1842 3.1833 2.7657 -178.7145 1.1826 1.5701 -0.5249 0.8297 -0.0767 -0.0955 -0.6793 -1.7745 -0.4720 -0.6936 0.0547 0.3858 0.3005 0.0956 -1.1908 -3.1188 2.5446 0.1550 0.0075 11.8639 1.1982 -1.2861 4.3240 -2.1538 0.0000 0.0000 9.7893 -2.2137 17.6160 -6.4354 0.0000 -0.0000 -0.0000 -0.0000 -0.0000 0.0000 -9.5915 -8.2142 -5.0523 6.3234 1.2434 2.9126 -0.0000 -0.0000 -13.8780 -5.2016 -14.5931 2.7991 0.0000 -0.0000 -0.0000 0.0000 -0.0000 0.0000 1.5541 7.9406 -39.1689 13.9982 0.0000 0.0000 -12.9031 -2.8359 1.4247 4.0119 0.0000 0.0000 2.7213 -1.9605 14.6853 10.2292 0.0000 0.0000 -6.7331 8.2544 5.8797 -2.3038 0.0000 -0.0000
 -1.2637 -6.7785 38.1883 3.1820 2.6846 -178.7553 1.1626 1.5575 -0.5155 0.8248 -0.0746 -0.0940 -0.7008 -1.7843 -0.4732 -0.7045 0.0473 0.3927 0.2587 0.0781 -1.2155 -3.1296 2.5689 0.1637 -0.1744 11.9492 1.1729 -1.2376 4.4486 -2.1711 0.0000 0.0000 9.7484 -2.0256 17.7278 -6.5345 0.0000 0.0000 0.0000 0.0000 -0.0000 0.0000 -9.7639 -8.3332 -5.0973 6.3169 1.1991 2.9202 -0.0000 -0.0000 -13.6984 -5.1614 -14.4326 3.0117 -0.0000 -0.0000 -0.0000 -0.0000 0.0000 0.0000 1.7386 7.8277 -39.4660 13.6864 0.0000 0.0000 -12.7262 -2.9972 1.7401 4.0026 0.0000 0.0000 2.7973 -1.9961 14.7355 10.1801 0.0000 0.0000 -6.7820 8.1848 5.9173 -2.2869 0.0000 -0.0000
 -1.2808 -6.7477 38.1921 3.1788 2.6068 -178.7872 1.1436 1.5493 -0.5065 0.8203 -0.0705 -0.0925 -0.7231 -1.7936 -0.4802 -0.7155 0.0398 0.3989 0.2190 0.0534 -1.2440 -3.1436 2.5907 0.1733 -0.3569 12.0197 1.1405 -1.1926 4.5772 -2.1843 0.0000 0.0000 9.7196 -1.8457 17.8454 -6.6224 -0.0000 -0.0000 -0.0000 -0.0000 -0.0000 -0.0000 -9.9313 -8.4462 -5.1373 6.3101 1.1544 2.9235 -0.0000 -0.0000 -13.5361 -5.1224 -14.2878 3.2164 -0.0000 -0.0000 0.0000 0.0000 0.0000 0.0000 1.9181 7.7165 -39.7612 13.3818 0.0000 0.0000 -12.5529 -3.1535 2.0451 3.9927 0.0000 0.0000 2.8675 -2.0293 14.7767 10.1350 0.0000 0.0000 -6.8323 8.1112 5.9576 -2.2667 0.0000 -0.0000
 -1.2968 -6.7181 38.1955 3.1739 2.5348 -178.8085 1.1260 1.5452 -0.4982 0.8162 -0.0644 -0.0909 -0.7456 -1.8013 -0.4931 -0.7264 0.0327 0.4041 0.1829 0.0212 -1.2763 -3.1604 2.6089 0.1837 -0.5346 12.0726 1.1010 -1.1507 4.7052 -2.1930 0.0000 0.0000 9.7045 -1.6794 17.9711 -6.6983 -0.0000 0.0000 -0.0000 0.0000 0.0000 -0.0000 -10.0899 -8.5506 -5.1713 6.3063 1.1109 2.9225 -0.0000 -0.0000 -13.3964 -5.0879 -14.1653 3.4029 -0.0000 -0.0000 0.0000 -0.0000 0.0000 -0.0000 2.0870 7.6109 -40.0441 13.0943 0.0000 0.0000 -12.3888 -3.3003 2.3284 3.9815 0.0000 0.0000 2.9297 -2.0591 14.8067 10.0957 0.0000 0.0000 -6.8827 8.0357 5.9989 -2.2439 0.0000 -0.0000
 -1.3112 -6.6905 38.1984 3.1645 2.4694 -178.8189 1.1065 1.5452 -0.4904 0.8132 -0.0572 -0.0896 -0.7670 -1.8067 -0.5118 -0.7367 0.0266 0.4080 0.1515 -0.0179 -1.3117 -3.1792 2.6232 0.1945 -0.7041 12.1066 1.0554 -1.1091 4.8288 -2.1958 0.0000 0.0000 9.7017 -1.5313 18.1032 -6.7617 -0.0000 0.0000 -0.0000 -0.0000 -0.0000 0.0000 -10.2362 -8.6439 -5.1985 6.3065 1.0703 2.9180 -0.0000 -0.0000 -13.2832 -5.0538 -14.0711 3.5679 0.0000 -0.0000 -0.0000 0.0000 0.0000 0.0000 2.2376 7.5130 -40.3052 12.8328 0.0000 0.0000 -12.2381 -3.4340 2.5801 3.9687 0.0000 0.0000 2.9789 -2.0860 14.8256 10.0642 0.0000 0.0000 -6.9323 7.9608 6.0386 -2.2197 0.0000 -0.0000
 -1.3243 -6.6650 38.2009 3.1563 2.4133 -178.8186 1.0914 1.5489 -0.4847 0.8101 -0.0482 -0.0882 -0.7867 -1.8090 -0.5342 -0.7462 0.0223 0.4102 0.1256 -0.0632 -1.3502 -3.1982 2.6322 0.2048 -0.8605 12.1237 1.0047 -1.0674 4.9430 -2.1945 0.0000 0.0000 9.7113 -1.4020 18.2398 -6.8158 0.0000 0.0000 0.0000 0.0000 -0.0000 0.0000 -10.3667 -8.7264 -5.2195 6.3134 1.0349 2.9101 -0.0000 -0.0000 -13.1971 -5.0224 -14.0079 3.7075 0.0000 0.0000 -0.0000 0.0000 0.0000 0.0000 2.3732 7.4272 -40.5401 12.6030 0.0000 0.0000 -12.1046 -3.5531 2.7963 3.9537 0.0000 0.0000 3.0216 -2.1076 14.8304 10.0394 0.0000 0.0000 -6.9794 7.8886 6.0781 -2.1957 0.0000 -0.0000
 -1.3358 -6.6417 38.2029 3.1482 2.3658 -178.8090 1.0790 1.5551 -0.4800 0.8076 -0.0380 -0.0870 -0.8052 -1.8076 -0.5601 -0.7544 0.0197 0.4108 0.1058 -0.1134 -1.3911 -3.2171 2.6365 0.2144 -1.0011 12.1264 0.9506 -1.0248 5.0438 -2.1898 0.0000 0.0000 9.7313 -1.2928 18.3797 -6.8613 0.0000 -0.0000 0.0000 -0.0000 -0.0000 0.0000 -10.4806 -8.7982 -5.2355 6.3265 1.0056 2.9014 -0.0000 -0.0000 -13.1379 -4.9918 -13.9748 3.8203 -0.0000 -0.0000 0.0000 0.0000 0.0000 -0.0000 2.4906 7.3544 -40.7455 12.4087 0.0000 0.0000 -11.9893 -3.6574 2.9751 3.9361 0.0000 0.0000 3.0561 -2.1252 14.8256 10.0220 0.0000 0.0000 -7.0232 7.8210 6.1126 -2.1733 0.0000 -0.0000
 -1.3460 -6.6208 38.2045 3.1402 2.3266 -178.7924 1.0676 1.5623 -0.4769 0.8064 -0.0265 -0.0855 -0.8211 -1.8022 -0.5877 -0.7616 0.0189 0.4105 0.0915 -0.1663 -1.4337 -3.2341 2.6358 0.2215 -1.1241 12.1178 0.8945 -0.9799 5.1303 -2.1823 0.0000 0.0000 9.7581 -1.2019 18.5177 -6.9006 -0.0000 -0.0000 -0.0000 -0.0000 -0.0000 -0.0000 -10.5778 -8.8597 -5.2466 6.3464 0.9829 2.8904 -0.0000 -0.0000 -13.1017 -4.9614 -13.9697 3.9085 0.0000 -0.0000 -0.0000 0.0000 0.0000 0.0000 2.5894 7.2951 -40.9184 12.2503 0.0000 0.0000 -11.8920 -3.7482 3.1157 3.9152 0.0000 0.0000 3.0830 -2.1387 14.8100 10.0119 0.0000 0.0000 -7.0637 7.7594 6.1442 -2.1532 0.0000 -0.0000
 -1.3551 -6.6019 38.2058 3.1320 2.2944 -178.7713 1.0574 1.5697 -0.4749 0.8040 -0.0148 -0.0844 -0.8332 -1.7929 -0.6148 -0.7675 0.0203 0.4086 0.0823 -0.2205 -1.4767 -3.2491 2.6306 0.2259 -1.2286 12.1019 0.8379 -0.9331 5.2006 -2.1723 0.0000 0.0000 9.7886 -1.1282 18.6502 -6.9350 0.0000 -0.0000 -0.0000 -0.0000 -0.0000 0.0000 -10.6587 -8.9132 -5.2537 6.3705 0.9673 2.8781 -0.0000 -0.0000 -13.0840 -4.9299 -13.9877 3.9732 0.0000 0.0000 0.0000 0.0000 0.0000 0.0000 2.6702 7.2486 -41.0607 12.1260 0.0000 0.0000 -11.8107 -3.8276 3.2225 3.8920 0.0000 0.0000 3.1025 -2.1494 14.7879 10.0088 0.0000 0.0000 -7.1011 7.7047 6.1711 -2.1363 0.0000 -0.0000
 -1.3632 -6.5845 38.2068 3.1291 2.2670 -178.7495 1.0518 1.5770 -0.4735 0.8037 -0.0051 -0.0834 -0.8442 -1.7804 -0.6400 -0.7720 0.0238 0.4066 0.0779 -0.2727 -1.5197 -3.2601 2.6207 0.2259 -1.3140 12.0855 0.7823 -0.8851 5.2529 -2.1614 0.0000 0.0000 9.8195 -1.0686 18.7728 -6.9644 -0.0000 0.0000 -0.0000 -0.0000 -0.0000 0.0000 -10.7254 -8.9595 -5.2599 6.3977 0.9584 2.8669 -0.0000 -0.0000 -13.0810 -4.8972 -14.0215 4.0195 -0.0000 0.0000 0.0000 -0.0000 0.0000 0.0000 2.7414 7.2121 -41.1766 12.0301 0.0000 0.0000 -11.7416 -3.8995 3.3031 3.8635 0.0000 0.0000 3.1231 -2.1592 14.7654 10.0105 0.0000 0.0000 -7.1353 7.6573 6.1905 -2.1244 0.0000 -0.0000
 -1.3709 -6.5689 38.2077 3.1187 2.2429 -178.7284 1.0388 1.5814 -0.4738 0.8010 0.0043 -0.0823 -0.8493 -1.7637 -0.6604 -0.7754 0.0282 0.4027 0.0771 -0.3222 -1.5605 -3.2689 2.6083 0.2212 -1.3839 12.0677 0.7321 -0.8340 5.2928 -2.1533 0.0000 0.0000 9.8496 -1.0223 18.8805 -6.9903 -0.0000 -0.0000 0.0000 -0.0000 -0.0000 -0.0000 -10.7798 -8.9998 -5.2635 6.4248 0.9551 2.8541 -0.0000 -0.0000 -13.0866 -4.8622 -14.0667 4.0517 -0.0000 0.0000 0.0000 0.0000 -0.0000 0.0000 2.7904 7.1851 -41.2665 11.9604 0.0000 0.0000 -11.6826 -3.9655 3.3600 3.8334 0.0000 0.0000 3.1293 -2.1682 14.7384 10.0211 0.0000 0.0000 -7.1692 7.6161 6.2094 -2.1164 0.0000 -0.0000
